<svg width="1282" height="194" viewBox="0 0 1282 194" fill="none" xmlns="http://www.w3.org/2000/svg">
<path d="M0.460001 190H134.62V165.3H29.06V106.28H119.28V81.58H29.06V28.8H132.02V4.09999H0.460001V190ZM135.697 190H159.357L231.377 4.09999H207.717L135.697 190ZM205.228 190H235.388L250.728 145.28H328.468L343.808 190H375.008L305.328 4.09999H274.388L205.228 190ZM259.308 121.1L289.468 30.62H289.988L320.408 121.1H259.308ZM489.64 193.64C536.18 193.64 557.76 169.72 557.76 137.74C557.76 98.48 523.96 89.9 488.08 80.8C464.16 74.82 444.66 70.4 444.66 49.6C444.66 33.48 456.62 24.9 480.02 24.9C507.06 24.9 519.8 37.12 522.92 59.48H552.56C549.7 22.04 522.14 0.459992 479.76 0.459992C439.72 0.459992 414.76 18.92 414.76 51.16C414.76 86.52 446.74 95.88 475.86 103.68C509.66 112.26 527.86 115.64 527.86 139.3C527.86 156.2 518.76 169.2 488.86 169.2C454.02 169.2 439.2 152.3 437.12 127.34H407.48C409.56 169.2 442.58 193.64 489.64 193.64ZM610.952 190H639.812V28.8H699.872V4.09999H550.892V28.8H610.952V190ZM782.952 193.64C834.172 193.64 855.752 166.86 855.752 126.82V4.09999H826.892V126.82C826.892 155.68 812.592 168.94 782.952 168.94C753.572 168.94 739.012 155.68 739.012 126.82V4.09999H710.412V126.82C710.412 166.86 731.992 193.64 782.952 193.64ZM881.078 190H952.318C1003.8 190 1034.48 156.98 1034.48 97.18C1034.48 37.38 1003.28 4.09999 951.798 4.09999H881.078V190ZM909.678 165.3V28.8H950.498C993.658 28.8 1004.84 61.3 1004.84 97.18C1004.84 133.06 993.658 165.3 950.498 165.3H909.678ZM1052.47 190H1081.07V4.09999H1052.47V190ZM1189.74 193.64C1245.38 193.64 1281 152.82 1281 96.92C1281 41.02 1245.38 0.459992 1189.74 0.459992C1134.1 0.459992 1098.48 41.02 1098.48 96.92C1098.48 152.82 1134.1 193.64 1189.74 193.64ZM1128.38 96.92C1128.38 58.7 1145.8 25.16 1189.74 25.16C1233.68 25.16 1251.1 58.7 1251.1 96.92C1251.1 135.14 1233.68 168.94 1189.74 168.94C1145.8 168.94 1128.38 135.14 1128.38 96.92Z" fill="white"/>
</svg>
